<?xml version="1.0" standalone="no"?>
<!DOCTYPE svg PUBLIC "-//W3C//DTD SVG 1.1//EN" "http://www.w3.org/Graphics/SVG/1.1/DTD/svg11.dtd">
<svg version="1.1" xmlns="http://www.w3.org/2000/svg" viewBox="0 0 115.328125 100.98154655763142" width="345.984375" height="302.94463967289425"><!-- svg-source:excalidraw --><metadata></metadata><defs><style class="style-fonts">
      </style></defs><g transform="translate(44.98046875 12.3359375) rotate(0 9.765625 -1.16796875)" stroke="none"><path fill="#1e1e1e" d="M -0.13,-2.62 Q -0.13,-2.62 1.90,-2.72 3.94,-2.82 6.26,-3.05 8.57,-3.28 10.65,-3.73 12.74,-4.18 16.12,-4.57 19.51,-4.96 19.93,-4.89 20.35,-4.83 20.72,-4.63 21.10,-4.43 21.40,-4.13 21.69,-3.82 21.87,-3.44 22.05,-3.05 22.10,-2.63 22.15,-2.21 22.06,-1.79 21.97,-1.38 21.76,-1.01 21.54,-0.64 21.22,-0.37 20.90,-0.09 20.50,0.06 20.11,0.22 19.68,0.25 19.26,0.27 18.85,0.16 18.44,0.05 18.09,-0.18 17.73,-0.41 17.47,-0.75 17.21,-1.09 17.08,-1.49 16.94,-1.89 16.93,-2.31 16.93,-2.74 17.06,-3.14 17.20,-3.55 17.45,-3.89 17.71,-4.23 18.06,-4.47 18.41,-4.71 18.82,-4.82 19.23,-4.94 19.65,-4.92 20.07,-4.90 20.47,-4.75 20.87,-4.59 21.19,-4.32 21.52,-4.04 21.74,-3.68 21.96,-3.32 22.05,-2.90 22.15,-2.49 22.10,-2.07 22.06,-1.64 21.89,-1.26 21.71,-0.87 21.42,-0.56 21.13,-0.25 20.76,-0.05 20.38,0.14 19.96,0.21 19.54,0.29 19.54,0.29 19.54,0.29 16.66,0.62 13.77,0.96 11.15,1.50 8.52,2.04 6.36,2.23 4.20,2.42 2.16,2.52 0.13,2.62 -0.18,2.60 -0.50,2.57 -0.80,2.48 -1.10,2.38 -1.37,2.21 -1.64,2.04 -1.86,1.82 -2.08,1.59 -2.24,1.32 -2.40,1.05 -2.49,0.74 -2.58,0.44 -2.60,0.12 -2.61,-0.18 -2.55,-0.49 -2.49,-0.80 -2.36,-1.09 -2.23,-1.38 -2.03,-1.63 -1.83,-1.87 -1.58,-2.07 -1.33,-2.26 -1.04,-2.38 -0.75,-2.51 -0.44,-2.56 -0.12,-2.62 -0.13,-2.62 L -0.13,-2.62 Z"></path></g><g transform="translate(59.43359375 13.961758341609652) rotate(0 -8.26953125 38.50989410801088)" stroke="none"><path fill="#1e1e1e" d="M 2.62,0 Q 2.62,0 2.62,1.35 2.62,2.70 2.62,5.44 2.62,8.19 2.62,10.52 2.62,12.85 2.62,15.21 2.62,17.57 2.62,19.86 2.62,22.15 2.62,24.44 2.62,26.73 2.95,29.16 3.28,31.59 3.53,34.02 3.79,36.45 3.79,38.79 3.79,41.13 3.79,43.32 3.79,45.50 3.79,47.83 3.79,50.15 4.10,52.50 4.41,54.84 5.25,56.87 6.09,58.89 7.67,60.48 9.24,62.06 10.47,63.92 11.69,65.79 12.58,67.75 13.46,69.72 13.86,71.92 14.26,74.13 12.76,75.67 11.26,77.21 8.83,77.52 6.40,77.82 4.22,78.12 2.04,78.41 -0.19,78.73 -2.44,79.05 -4.89,79.15 -7.34,79.24 -9.71,79.37 -12.08,79.49 -14.39,79.53 -16.69,79.56 -18.98,79.13 -21.26,78.69 -23.35,77.53 -25.43,76.36 -27.71,74.43 -29.98,72.51 -30.25,72.18 -30.52,71.85 -30.67,71.45 -30.83,71.06 -30.84,70.63 -30.86,70.21 -30.74,69.80 -30.62,69.39 -30.38,69.04 -30.13,68.69 -29.79,68.44 -29.45,68.19 -29.04,68.06 -28.64,67.93 -28.21,67.94 -27.79,67.94 -27.39,68.08 -26.99,68.23 -26.65,68.49 -26.32,68.75 -26.09,69.11 -25.85,69.46 -25.75,69.87 -25.64,70.28 -25.67,70.71 -25.70,71.13 -25.86,71.52 -26.02,71.92 -26.30,72.24 -26.58,72.55 -26.95,72.77 -27.32,72.98 -27.73,73.07 -28.15,73.15 -28.57,73.10 -28.99,73.05 -29.38,72.86 -29.76,72.68 -30.06,72.38 -30.37,72.09 -30.56,71.71 -30.75,71.33 -30.82,70.91 -30.88,70.49 -30.80,70.07 -30.73,69.65 -30.52,69.28 -30.32,68.91 -30.01,68.62 -29.69,68.33 -29.31,68.16 -28.92,67.99 -28.49,67.95 -28.07,67.91 -27.66,68.01 -27.24,68.10 -26.88,68.33 -26.52,68.55 -26.52,68.55 -26.52,68.55 -24.25,70.48 -21.98,72.40 -19.87,73.27 -17.76,74.14 -15.58,74.23 -13.40,74.33 -11.24,74.20 -9.08,74.07 -6.75,73.97 -4.42,73.86 -2.18,73.65 0.05,73.44 2.27,73.12 4.48,72.80 6.74,73.34 9.00,73.89 8.45,71.76 7.90,69.64 6.76,67.84 5.61,66.05 4.11,64.42 2.61,62.79 1.35,60.93 0.10,59.08 -0.48,56.84 -1.07,54.60 -1.26,52.38 -1.45,50.15 -1.45,47.83 -1.45,45.50 -1.45,43.32 -1.45,41.13 -1.45,38.80 -1.45,36.48 -1.75,34.01 -2.05,31.54 -2.34,29.13 -2.62,26.73 -2.62,24.44 -2.62,22.15 -2.62,19.86 -2.62,17.57 -2.62,15.21 -2.62,12.85 -2.62,10.52 -2.62,8.19 -2.62,5.44 -2.62,2.70 -2.62,1.35 -2.62,0 -2.58,-0.31 -2.55,-0.62 -2.43,-0.92 -2.32,-1.22 -2.14,-1.48 -1.96,-1.74 -1.72,-1.95 -1.49,-2.16 -1.21,-2.30 -0.93,-2.45 -0.62,-2.53 -0.31,-2.60 0.00,-2.60 0.31,-2.60 0.62,-2.53 0.93,-2.45 1.21,-2.30 1.49,-2.16 1.72,-1.95 1.96,-1.74 2.14,-1.48 2.32,-1.22 2.43,-0.92 2.55,-0.62 2.58,-0.31 2.62,0.00 2.62,0.00 L 2.62,0 Z"></path></g><g transform="translate(77.234375 32.3671875) rotate(0 14.046875 3.650390625)" stroke="none"><path fill="#1e1e1e" d="M 0,-2.62 Q 0,-2.62 1.21,-2.62 2.43,-2.62 4.94,-2.32 7.44,-2.03 9.57,-1.43 11.69,-0.83 13.92,-0.18 16.15,0.45 18.32,1.11 20.50,1.76 22.84,2.57 25.19,3.38 27.14,4.13 29.10,4.87 29.46,5.09 29.82,5.32 30.09,5.65 30.36,5.97 30.51,6.37 30.66,6.77 30.68,7.19 30.70,7.62 30.58,8.02 30.46,8.43 30.21,8.78 29.97,9.13 29.63,9.38 29.29,9.63 28.88,9.76 28.48,9.89 28.05,9.89 27.63,9.88 27.23,9.74 26.83,9.60 26.49,9.34 26.16,9.08 25.92,8.72 25.69,8.36 25.58,7.95 25.47,7.54 25.50,7.12 25.53,6.69 25.69,6.30 25.86,5.91 26.14,5.59 26.42,5.27 26.78,5.06 27.15,4.84 27.57,4.76 27.98,4.67 28.41,4.72 28.83,4.78 29.21,4.96 29.59,5.14 29.90,5.44 30.20,5.74 30.40,6.11 30.59,6.49 30.65,6.91 30.72,7.33 30.64,7.75 30.57,8.17 30.36,8.54 30.16,8.91 29.84,9.20 29.53,9.49 29.14,9.66 28.76,9.84 28.33,9.88 27.91,9.92 27.50,9.82 27.08,9.72 27.08,9.72 27.08,9.72 23.53,8.49 19.98,7.25 17.87,6.53 15.75,5.81 13.62,5.16 11.49,4.51 9.32,3.95 7.15,3.40 4.79,3.01 2.43,2.62 1.21,2.62 0,2.62 -0.31,2.58 -0.62,2.55 -0.92,2.43 -1.22,2.32 -1.48,2.14 -1.74,1.96 -1.95,1.72 -2.16,1.49 -2.30,1.21 -2.45,0.93 -2.53,0.62 -2.60,0.31 -2.60,-0.00 -2.60,-0.31 -2.53,-0.62 -2.45,-0.93 -2.30,-1.21 -2.16,-1.49 -1.95,-1.72 -1.74,-1.96 -1.48,-2.14 -1.22,-2.32 -0.92,-2.43 -0.62,-2.55 -0.31,-2.58 0.00,-2.62 0.00,-2.62 L 0,-2.62 Z"></path></g><g transform="translate(31.2890625 39.9765625) rotate(0 -10.64453125 7.185546875)" stroke="none"><path fill="#1e1e1e" d="M 0.88,2.47 Q 0.88,2.47 -1.22,3.22 -3.33,3.97 -5.64,5.14 -7.95,6.30 -9.90,7.64 -11.85,8.98 -13.39,10.70 -14.94,12.43 -17.09,14.22 -19.23,16.01 -19.55,16.29 -19.87,16.58 -20.26,16.75 -20.65,16.91 -21.07,16.95 -21.49,16.98 -21.91,16.88 -22.32,16.78 -22.68,16.55 -23.04,16.32 -23.30,15.99 -23.57,15.66 -23.72,15.26 -23.86,14.86 -23.88,14.44 -23.89,14.01 -23.76,13.61 -23.64,13.20 -23.39,12.86 -23.14,12.51 -22.80,12.26 -22.45,12.01 -22.05,11.89 -21.64,11.76 -21.22,11.77 -20.79,11.79 -20.39,11.93 -19.99,12.08 -19.66,12.34 -19.33,12.61 -19.10,12.97 -18.87,13.33 -18.77,13.74 -18.67,14.15 -18.70,14.57 -18.73,15.00 -18.90,15.39 -19.07,15.78 -19.35,16.09 -19.64,16.41 -20.01,16.62 -20.38,16.83 -20.79,16.91 -21.21,16.99 -21.63,16.93 -22.05,16.88 -22.43,16.69 -22.81,16.50 -23.11,16.20 -23.42,15.90 -23.61,15.52 -23.79,15.14 -23.85,14.72 -23.91,14.30 -23.83,13.88 -23.75,13.46 -23.54,13.09 -23.33,12.72 -23.33,12.72 -23.33,12.72 -20.22,9.83 -17.10,6.94 -15.36,5.25 -13.61,3.57 -11.67,2.39 -9.74,1.21 -7.42,0.12 -5.09,-0.97 -2.98,-1.72 -0.88,-2.47 -0.57,-2.54 -0.26,-2.61 0.05,-2.60 0.36,-2.60 0.67,-2.51 0.98,-2.43 1.25,-2.28 1.53,-2.13 1.76,-1.91 2.00,-1.70 2.17,-1.43 2.34,-1.17 2.45,-0.87 2.56,-0.57 2.59,-0.26 2.62,0.05 2.58,0.36 2.53,0.67 2.41,0.97 2.30,1.26 2.11,1.52 1.93,1.78 1.68,1.98 1.44,2.19 1.16,2.33 0.88,2.47 0.88,2.47 L 0.88,2.47 Z"></path></g></svg>