<?xml version="1.0" standalone="no"?>
<!DOCTYPE svg PUBLIC "-//W3C//DTD SVG 1.1//EN" "http://www.w3.org/Graphics/SVG/1.1/DTD/svg11.dtd">
<svg version="1.1" xmlns="http://www.w3.org/2000/svg" viewBox="0 0 201.21740148970287 100.98154655763142" width="603.6522044691086" height="302.94463967289425"><!-- svg-source:excalidraw --><metadata></metadata><defs><style class="style-fonts">
      </style></defs><g transform="translate(44.98046875 12.3359375) rotate(0 9.765625 -1.16796875)" stroke="none"><path fill="#1e1e1e" d="M -0.13,-2.62 Q -0.13,-2.62 1.90,-2.72 3.94,-2.82 6.26,-3.05 8.57,-3.28 10.65,-3.73 12.74,-4.18 16.12,-4.57 19.51,-4.96 19.93,-4.89 20.35,-4.83 20.72,-4.63 21.10,-4.43 21.40,-4.13 21.69,-3.82 21.87,-3.44 22.05,-3.05 22.10,-2.63 22.15,-2.21 22.06,-1.79 21.97,-1.38 21.76,-1.01 21.54,-0.64 21.22,-0.37 20.90,-0.09 20.50,0.06 20.11,0.22 19.68,0.25 19.26,0.27 18.85,0.16 18.44,0.05 18.09,-0.18 17.73,-0.41 17.47,-0.75 17.21,-1.09 17.08,-1.49 16.94,-1.89 16.93,-2.31 16.93,-2.74 17.06,-3.14 17.20,-3.55 17.45,-3.89 17.71,-4.23 18.06,-4.47 18.41,-4.71 18.82,-4.82 19.23,-4.94 19.65,-4.92 20.07,-4.90 20.47,-4.75 20.87,-4.59 21.19,-4.32 21.52,-4.04 21.74,-3.68 21.96,-3.32 22.05,-2.90 22.15,-2.49 22.10,-2.07 22.06,-1.64 21.89,-1.26 21.71,-0.87 21.42,-0.56 21.13,-0.25 20.76,-0.05 20.38,0.14 19.96,0.21 19.54,0.29 19.54,0.29 19.54,0.29 16.66,0.62 13.77,0.96 11.15,1.50 8.52,2.04 6.36,2.23 4.20,2.42 2.16,2.52 0.13,2.62 -0.18,2.60 -0.50,2.57 -0.80,2.48 -1.10,2.38 -1.37,2.21 -1.64,2.04 -1.86,1.82 -2.08,1.59 -2.24,1.32 -2.40,1.05 -2.49,0.74 -2.58,0.44 -2.60,0.12 -2.61,-0.18 -2.55,-0.49 -2.49,-0.80 -2.36,-1.09 -2.23,-1.38 -2.03,-1.63 -1.83,-1.87 -1.58,-2.07 -1.33,-2.26 -1.04,-2.38 -0.75,-2.51 -0.44,-2.56 -0.12,-2.62 -0.13,-2.62 L -0.13,-2.62 Z"></path></g><g transform="translate(59.43359375 13.961758341609652) rotate(0 -8.26953125 38.50989410801088)" stroke="none"><path fill="#1e1e1e" d="M 2.62,0 Q 2.62,0 2.62,1.35 2.62,2.70 2.62,5.44 2.62,8.19 2.62,10.52 2.62,12.85 2.62,15.21 2.62,17.57 2.62,19.86 2.62,22.15 2.62,24.44 2.62,26.73 2.95,29.16 3.28,31.59 3.53,34.02 3.79,36.45 3.79,38.79 3.79,41.13 3.79,43.32 3.79,45.50 3.79,47.83 3.79,50.15 4.10,52.50 4.41,54.84 5.25,56.87 6.09,58.89 7.67,60.48 9.24,62.06 10.47,63.92 11.69,65.79 12.58,67.75 13.46,69.72 13.86,71.92 14.26,74.13 12.76,75.67 11.26,77.21 8.83,77.52 6.40,77.82 4.22,78.12 2.04,78.41 -0.19,78.73 -2.44,79.05 -4.89,79.15 -7.34,79.24 -9.71,79.37 -12.08,79.49 -14.39,79.53 -16.69,79.56 -18.98,79.13 -21.26,78.69 -23.35,77.53 -25.43,76.36 -27.71,74.43 -29.98,72.51 -30.25,72.18 -30.52,71.85 -30.67,71.45 -30.83,71.06 -30.84,70.63 -30.86,70.21 -30.74,69.80 -30.62,69.39 -30.38,69.04 -30.13,68.69 -29.79,68.44 -29.45,68.19 -29.04,68.06 -28.64,67.93 -28.21,67.94 -27.79,67.94 -27.39,68.08 -26.99,68.23 -26.65,68.49 -26.32,68.75 -26.09,69.11 -25.85,69.46 -25.75,69.87 -25.64,70.28 -25.67,70.71 -25.70,71.13 -25.86,71.52 -26.02,71.92 -26.30,72.24 -26.58,72.55 -26.95,72.77 -27.32,72.98 -27.73,73.07 -28.15,73.15 -28.57,73.10 -28.99,73.05 -29.38,72.86 -29.76,72.68 -30.06,72.38 -30.37,72.09 -30.56,71.71 -30.75,71.33 -30.82,70.91 -30.88,70.49 -30.80,70.07 -30.73,69.65 -30.52,69.28 -30.32,68.91 -30.01,68.62 -29.69,68.33 -29.31,68.16 -28.92,67.99 -28.49,67.95 -28.07,67.91 -27.66,68.01 -27.24,68.10 -26.88,68.33 -26.52,68.55 -26.52,68.55 -26.52,68.55 -24.25,70.48 -21.98,72.40 -19.87,73.27 -17.76,74.14 -15.58,74.23 -13.40,74.33 -11.24,74.20 -9.08,74.07 -6.75,73.97 -4.42,73.86 -2.18,73.65 0.05,73.44 2.27,73.12 4.48,72.80 6.74,73.34 9.00,73.89 8.45,71.76 7.90,69.64 6.76,67.84 5.61,66.05 4.11,64.42 2.61,62.79 1.35,60.93 0.10,59.08 -0.48,56.84 -1.07,54.60 -1.26,52.38 -1.45,50.15 -1.45,47.83 -1.45,45.50 -1.45,43.32 -1.45,41.13 -1.45,38.80 -1.45,36.48 -1.75,34.01 -2.05,31.54 -2.34,29.13 -2.62,26.73 -2.62,24.44 -2.62,22.15 -2.62,19.86 -2.62,17.57 -2.62,15.21 -2.62,12.85 -2.62,10.52 -2.62,8.19 -2.62,5.44 -2.62,2.70 -2.62,1.35 -2.62,0 -2.58,-0.31 -2.55,-0.62 -2.43,-0.92 -2.32,-1.22 -2.14,-1.48 -1.96,-1.74 -1.72,-1.95 -1.49,-2.16 -1.21,-2.30 -0.93,-2.45 -0.62,-2.53 -0.31,-2.60 0.00,-2.60 0.31,-2.60 0.62,-2.53 0.93,-2.45 1.21,-2.30 1.49,-2.16 1.72,-1.95 1.96,-1.74 2.14,-1.48 2.32,-1.22 2.43,-0.92 2.55,-0.62 2.58,-0.31 2.62,0.00 2.62,0.00 L 2.62,0 Z"></path></g><g transform="translate(77.234375 32.3671875) rotate(0 14.046875 3.650390625)" stroke="none"><path fill="#1e1e1e" d="M 0,-2.62 Q 0,-2.62 1.21,-2.62 2.43,-2.62 4.94,-2.32 7.44,-2.03 9.57,-1.43 11.69,-0.83 13.92,-0.18 16.15,0.45 18.32,1.11 20.50,1.76 22.84,2.57 25.19,3.38 27.14,4.13 29.10,4.87 29.46,5.09 29.82,5.32 30.09,5.65 30.36,5.97 30.51,6.37 30.66,6.77 30.68,7.19 30.70,7.62 30.58,8.02 30.46,8.43 30.21,8.78 29.97,9.13 29.63,9.38 29.29,9.63 28.88,9.76 28.48,9.89 28.05,9.89 27.63,9.88 27.23,9.74 26.83,9.60 26.49,9.34 26.16,9.08 25.92,8.72 25.69,8.36 25.58,7.95 25.47,7.54 25.50,7.12 25.53,6.69 25.69,6.30 25.86,5.91 26.14,5.59 26.42,5.27 26.78,5.06 27.15,4.84 27.57,4.76 27.98,4.67 28.41,4.72 28.83,4.78 29.21,4.96 29.59,5.14 29.90,5.44 30.20,5.74 30.40,6.11 30.59,6.49 30.65,6.91 30.72,7.33 30.64,7.75 30.57,8.17 30.36,8.54 30.16,8.91 29.84,9.20 29.53,9.49 29.14,9.66 28.76,9.84 28.33,9.88 27.91,9.92 27.50,9.82 27.08,9.72 27.08,9.72 27.08,9.72 23.53,8.49 19.98,7.25 17.87,6.53 15.75,5.81 13.62,5.16 11.49,4.51 9.32,3.95 7.15,3.40 4.79,3.01 2.43,2.62 1.21,2.62 0,2.62 -0.31,2.58 -0.62,2.55 -0.92,2.43 -1.22,2.32 -1.48,2.14 -1.74,1.96 -1.95,1.72 -2.16,1.49 -2.30,1.21 -2.45,0.93 -2.53,0.62 -2.60,0.31 -2.60,-0.00 -2.60,-0.31 -2.53,-0.62 -2.45,-0.93 -2.30,-1.21 -2.16,-1.49 -1.95,-1.72 -1.74,-1.96 -1.48,-2.14 -1.22,-2.32 -0.92,-2.43 -0.62,-2.55 -0.31,-2.58 0.00,-2.62 0.00,-2.62 L 0,-2.62 Z"></path></g><g transform="translate(31.2890625 39.9765625) rotate(0 -10.64453125 7.185546875)" stroke="none"><path fill="#1e1e1e" d="M 0.88,2.47 Q 0.88,2.47 -1.22,3.22 -3.33,3.97 -5.64,5.14 -7.95,6.30 -9.90,7.64 -11.85,8.98 -13.39,10.70 -14.94,12.43 -17.09,14.22 -19.23,16.01 -19.55,16.29 -19.87,16.58 -20.26,16.75 -20.65,16.91 -21.07,16.95 -21.49,16.98 -21.91,16.88 -22.32,16.78 -22.68,16.55 -23.04,16.32 -23.30,15.99 -23.57,15.66 -23.72,15.26 -23.86,14.86 -23.88,14.44 -23.89,14.01 -23.76,13.61 -23.64,13.20 -23.39,12.86 -23.14,12.51 -22.80,12.26 -22.45,12.01 -22.05,11.89 -21.64,11.76 -21.22,11.77 -20.79,11.79 -20.39,11.93 -19.99,12.08 -19.66,12.34 -19.33,12.61 -19.10,12.97 -18.87,13.33 -18.77,13.74 -18.67,14.15 -18.70,14.57 -18.73,15.00 -18.90,15.39 -19.07,15.78 -19.35,16.09 -19.64,16.41 -20.01,16.62 -20.38,16.83 -20.79,16.91 -21.21,16.99 -21.63,16.93 -22.05,16.88 -22.43,16.69 -22.81,16.50 -23.11,16.20 -23.42,15.90 -23.61,15.52 -23.79,15.14 -23.85,14.72 -23.91,14.30 -23.83,13.88 -23.75,13.46 -23.54,13.09 -23.33,12.72 -23.33,12.72 -23.33,12.72 -20.22,9.83 -17.10,6.94 -15.36,5.25 -13.61,3.57 -11.67,2.39 -9.74,1.21 -7.42,0.12 -5.09,-0.97 -2.98,-1.72 -0.88,-2.47 -0.57,-2.54 -0.26,-2.61 0.05,-2.60 0.36,-2.60 0.67,-2.51 0.98,-2.43 1.25,-2.28 1.53,-2.13 1.76,-1.91 2.00,-1.70 2.17,-1.43 2.34,-1.17 2.45,-0.87 2.56,-0.57 2.59,-0.26 2.62,0.05 2.58,0.36 2.53,0.67 2.41,0.97 2.30,1.26 2.11,1.52 1.93,1.78 1.68,1.98 1.44,2.19 1.16,2.33 0.88,2.47 0.88,2.47 L 0.88,2.47 Z"></path></g><g transform="translate(98.69842850947862 69.38397302516069) rotate(0 0.46893011436202414 2.963299337143013)" stroke="none"><path fill="#1e1e1e" d="M -0.25,-2.61 Q -0.25,-2.61 1.06,-2.74 2.38,-2.87 4.42,-3.51 6.45,-4.16 4.63,-5.53 2.81,-6.91 0.63,-7.11 -1.54,-7.31 -3.15,-5.65 -4.76,-3.98 -5.61,-1.96 -6.45,0.05 -7.01,2.27 -7.56,4.48 -7.81,6.60 -8.07,8.71 -7.19,10.67 -6.32,12.64 -4.16,12.89 -2.00,13.14 0.21,13.19 2.43,13.25 4.84,13.15 7.25,13.05 8.77,12.95 10.29,12.85 10.71,12.87 11.14,12.89 11.53,13.05 11.93,13.20 12.25,13.48 12.58,13.75 12.80,14.11 13.02,14.48 13.11,14.89 13.20,15.31 13.16,15.73 13.12,16.15 12.94,16.54 12.76,16.93 12.47,17.23 12.18,17.54 11.81,17.75 11.43,17.95 11.01,18.02 10.59,18.09 10.18,18.02 9.76,17.95 9.38,17.76 9.00,17.56 8.71,17.25 8.42,16.95 8.24,16.56 8.06,16.18 8.01,15.75 7.96,15.33 8.05,14.92 8.14,14.50 8.36,14.14 8.57,13.77 8.90,13.49 9.22,13.22 9.61,13.06 10.01,12.90 10.43,12.87 10.85,12.85 11.26,12.96 11.67,13.07 12.03,13.31 12.38,13.55 12.64,13.88 12.90,14.22 13.04,14.62 13.17,15.02 13.17,15.45 13.18,15.87 13.04,16.28 12.91,16.68 12.65,17.02 12.40,17.36 12.05,17.60 11.70,17.84 11.29,17.96 10.88,18.07 10.88,18.07 10.88,18.07 7.95,18.23 5.03,18.39 2.84,18.44 0.65,18.49 -1.51,18.42 -3.68,18.34 -5.82,18.01 -7.96,17.67 -9.77,16.30 -11.59,14.93 -12.45,12.80 -13.30,10.67 -13.25,8.44 -13.19,6.22 -12.72,3.92 -12.25,1.62 -11.62,-0.64 -11.00,-2.91 -10.04,-4.94 -9.07,-6.97 -7.51,-8.68 -5.94,-10.38 -3.69,-11.47 -1.44,-12.57 0.82,-12.36 3.09,-12.15 5.29,-11.95 7.49,-11.74 9.66,-10.74 11.83,-9.73 13.04,-7.63 14.26,-5.52 13.12,-3.51 11.98,-1.51 9.78,-0.16 7.58,1.18 5.23,1.77 2.89,2.35 1.57,2.48 0.25,2.61 -0.06,2.60 -0.37,2.59 -0.68,2.51 -0.98,2.43 -1.26,2.27 -1.54,2.12 -1.77,1.90 -2.00,1.69 -2.18,1.42 -2.35,1.16 -2.45,0.86 -2.56,0.56 -2.59,0.25 -2.62,-0.06 -2.58,-0.37 -2.53,-0.68 -2.41,-0.98 -2.29,-1.27 -2.10,-1.53 -1.92,-1.78 -1.68,-1.99 -1.43,-2.19 -1.15,-2.33 -0.87,-2.47 -0.56,-2.54 -0.25,-2.61 -0.25,-2.61 L -0.25,-2.61 Z"></path></g><g transform="translate(133.44159220898155 67.65938365878719) rotate(0 3.377850507520236 3.284629460689274)" stroke="none"><path fill="#1e1e1e" d="M -0.51,-2.57 Q -0.51,-2.57 1.64,-3.00 3.80,-3.43 6.06,-4.11 8.33,-4.79 10.17,-6.13 12.00,-7.47 9.98,-8.80 7.96,-10.13 5.59,-9.72 3.22,-9.32 1.26,-7.97 -0.69,-6.63 -2.20,-4.70 -3.71,-2.76 -4.38,-0.37 -5.05,2.01 -5.23,4.29 -5.41,6.58 -5.10,8.75 -4.79,10.93 -3.61,12.83 -2.44,14.73 -0.41,15.69 1.61,16.64 4.15,16.71 6.69,16.77 8.93,16.67 11.17,16.58 11.81,17.06 12.45,17.54 12.70,17.19 12.94,16.84 13.28,16.59 13.62,16.33 14.03,16.20 14.43,16.07 14.86,16.08 15.28,16.08 15.68,16.22 16.08,16.36 16.42,16.63 16.75,16.89 16.99,17.24 17.22,17.60 17.33,18.01 17.44,18.42 17.41,18.84 17.38,19.27 17.22,19.66 17.06,20.05 16.78,20.37 16.50,20.69 16.13,20.91 15.77,21.12 15.35,21.21 14.93,21.29 14.51,21.24 14.09,21.19 13.71,21.01 13.32,20.82 13.02,20.53 12.71,20.23 12.52,19.85 12.32,19.48 12.26,19.06 12.20,18.64 12.27,18.22 12.35,17.80 12.55,17.43 12.75,17.05 13.07,16.76 13.38,16.48 13.77,16.30 14.15,16.13 14.58,16.09 15.00,16.05 15.41,16.14 15.83,16.24 16.19,16.47 16.55,16.69 16.82,17.02 17.09,17.34 17.24,17.74 17.40,18.14 17.41,18.56 17.43,18.99 17.31,19.39 17.19,19.80 17.19,19.80 17.19,19.80 14.10,20.84 11.01,21.88 8.85,21.95 6.68,22.02 4.45,21.99 2.21,21.96 -0.32,21.47 -2.86,20.97 -4.70,19.50 -6.53,18.02 -7.86,16.01 -9.20,14.00 -9.87,11.93 -10.54,9.86 -10.58,7.53 -10.62,5.20 -10.41,3.06 -10.19,0.92 -9.51,-1.58 -8.83,-4.09 -7.69,-6.06 -6.55,-8.03 -4.91,-9.66 -3.26,-11.29 -1.28,-12.60 0.69,-13.92 2.99,-14.62 5.30,-15.33 7.66,-15.30 10.02,-15.27 12.48,-14.64 14.95,-14.01 16.10,-11.39 17.24,-8.76 16.63,-6.42 16.02,-4.07 14.38,-2.70 12.75,-1.34 10.86,-0.37 8.96,0.60 6.90,1.15 4.83,1.71 2.67,2.14 0.51,2.57 0.19,2.59 -0.11,2.62 -0.42,2.57 -0.74,2.51 -1.03,2.39 -1.32,2.26 -1.57,2.07 -1.82,1.88 -2.02,1.64 -2.22,1.39 -2.36,1.10 -2.49,0.82 -2.55,0.51 -2.61,0.20 -2.60,-0.11 -2.59,-0.43 -2.50,-0.73 -2.41,-1.03 -2.25,-1.31 -2.09,-1.58 -1.87,-1.81 -1.65,-2.04 -1.38,-2.20 -1.11,-2.37 -0.81,-2.47 -0.51,-2.57 -0.51,-2.57 L -0.51,-2.57 Z"></path></g><g transform="translate(166.0943293687485 15.478181288527423) rotate(0 12.56153606047718 35.92117671221186)" stroke="none"><path fill="#1e1e1e" d="M 2.60,-0.33 Q 2.60,-0.33 3.12,3.66 3.64,7.67 3.96,11.04 4.27,14.41 4.41,17.23 4.55,20.04 4.60,22.41 4.66,24.77 4.70,28.23 4.73,31.70 4.83,34.33 4.93,36.97 5.21,39.36 5.49,41.75 5.90,44.59 6.32,47.42 6.72,50.10 7.13,52.78 7.66,54.96 8.19,57.14 8.77,59.51 9.35,61.88 9.77,64.09 10.18,66.30 12.28,67.16 14.37,68.02 16.23,65.95 18.09,63.88 19.44,61.39 20.79,58.90 21.79,56.82 22.80,54.74 23.06,54.40 23.32,54.06 23.67,53.83 24.02,53.59 24.43,53.48 24.84,53.37 25.27,53.39 25.69,53.42 26.09,53.57 26.48,53.73 26.80,54.01 27.13,54.29 27.34,54.65 27.56,55.02 27.65,55.43 27.74,55.85 27.69,56.27 27.65,56.69 27.47,57.08 27.29,57.46 26.99,57.77 26.70,58.08 26.32,58.27 25.95,58.47 25.53,58.54 25.11,58.61 24.69,58.53 24.27,58.46 23.90,58.26 23.52,58.06 23.23,57.75 22.94,57.44 22.76,57.06 22.58,56.67 22.54,56.25 22.50,55.83 22.59,55.41 22.68,55.00 22.90,54.63 23.12,54.27 23.45,54.00 23.77,53.72 24.17,53.57 24.56,53.41 24.99,53.39 25.41,53.37 25.82,53.48 26.23,53.60 26.58,53.84 26.93,54.08 27.19,54.42 27.44,54.76 27.58,55.16 27.71,55.56 27.71,55.99 27.71,56.41 27.57,56.82 27.43,57.22 27.43,57.22 27.43,57.22 25.98,60.18 24.53,63.14 23.02,65.67 21.51,68.21 19.80,70.00 18.08,71.80 16.19,72.92 14.30,74.03 11.90,73.97 9.49,73.92 7.90,72.05 6.30,70.18 5.46,67.97 4.61,65.77 4.28,63.58 3.95,61.39 3.28,59.07 2.62,56.74 2.17,54.50 1.72,52.25 1.28,49.19 0.84,46.13 0.50,43.79 0.15,41.46 -0.08,39.34 -0.31,37.23 -0.41,34.48 -0.51,31.73 -0.55,28.32 -0.58,24.90 -0.64,22.60 -0.69,20.29 -0.82,17.60 -0.95,14.90 -1.25,11.63 -1.56,8.35 -2.08,4.34 -2.60,0.33 -2.60,0.02 -2.61,-0.29 -2.53,-0.60 -2.46,-0.91 -2.31,-1.19 -2.17,-1.47 -1.96,-1.71 -1.75,-1.95 -1.49,-2.13 -1.23,-2.31 -0.94,-2.43 -0.64,-2.54 -0.33,-2.58 -0.02,-2.62 0.29,-2.59 0.60,-2.55 0.90,-2.44 1.20,-2.33 1.46,-2.15 1.72,-1.98 1.93,-1.74 2.14,-1.50 2.29,-1.23 2.44,-0.95 2.52,-0.64 2.60,-0.33 2.60,-0.33 L 2.60,-0.33 Z"></path></g><g transform="translate(162.313212025123 39.969892683217324) rotate(0 11.898395431883955 -0.8312210009097498)" stroke="none"><path fill="#1e1e1e" d="M -0.16,-2.62 Q -0.16,-2.62 2.14,-2.76 4.44,-2.91 8.23,-3.24 12.01,-3.57 14.77,-3.77 17.54,-3.97 20.58,-4.12 23.63,-4.28 24.06,-4.24 24.48,-4.19 24.87,-4.02 25.25,-3.84 25.56,-3.55 25.87,-3.26 26.07,-2.89 26.28,-2.51 26.35,-2.09 26.42,-1.67 26.35,-1.25 26.29,-0.83 26.09,-0.46 25.89,-0.08 25.59,0.20 25.28,0.50 24.90,0.68 24.51,0.86 24.09,0.91 23.67,0.96 23.25,0.87 22.83,0.78 22.47,0.56 22.10,0.35 21.83,0.02 21.55,-0.29 21.39,-0.68 21.23,-1.08 21.20,-1.50 21.18,-1.93 21.29,-2.34 21.40,-2.75 21.64,-3.10 21.87,-3.45 22.21,-3.71 22.55,-3.97 22.95,-4.11 23.35,-4.25 23.78,-4.25 24.20,-4.25 24.60,-4.12 25.01,-3.99 25.35,-3.73 25.69,-3.48 25.93,-3.13 26.17,-2.78 26.29,-2.37 26.40,-1.96 26.38,-1.53 26.36,-1.11 26.21,-0.71 26.05,-0.32 25.78,0.00 25.50,0.32 25.14,0.55 24.78,0.77 24.36,0.86 23.95,0.95 23.95,0.95 23.95,0.95 20.94,1.11 17.93,1.26 15.20,1.46 12.47,1.66 8.62,1.99 4.77,2.32 2.47,2.47 0.16,2.62 -0.14,2.60 -0.46,2.58 -0.76,2.49 -1.07,2.39 -1.34,2.23 -1.61,2.07 -1.83,1.84 -2.06,1.62 -2.22,1.35 -2.39,1.08 -2.48,0.78 -2.58,0.48 -2.60,0.16 -2.62,-0.15 -2.56,-0.46 -2.50,-0.77 -2.38,-1.06 -2.25,-1.35 -2.05,-1.60 -1.86,-1.85 -1.61,-2.04 -1.36,-2.24 -1.07,-2.37 -0.78,-2.50 -0.47,-2.56 -0.16,-2.62 -0.16,-2.62 L -0.16,-2.62 Z"></path></g></svg>